<?xml version="1.0" encoding="UTF-8"?>
<svg version="1.1" xmlns="http://www.w3.org/2000/svg" width="189" height="136">
<path d="M0 0 C62.37 0 124.74 0 189 0 C189 44.88 189 89.76 189 136 C126.63 136 64.26 136 0 136 C0 91.12 0 46.24 0 0 Z " fill="#010001" transform="translate(0,0)"/>
<path d="M0 0 C2.206875 -0.061875 4.41375 -0.12375 6.6875 -0.1875 C8.54955078 -0.23970703 8.54955078 -0.23970703 10.44921875 -0.29296875 C14.23750993 0.01959653 16.01283246 0.71092052 19 3 C22.32024488 7.80863052 22.74051042 12.3396601 22 18 C20.75809707 21.52961886 19.80996748 23.3793184 16.84375 25.65234375 C13.26359432 27.34898346 10.63042532 27.29804931 6.6875 27.1875 C3.3771875 27.0946875 3.3771875 27.0946875 0 27 C0 18.09 0 9.18 0 0 Z " fill="#0E0B09" transform="translate(77,83)"/>
<path d="M0 0 C1.2065625 0.0309375 1.2065625 0.0309375 2.4375 0.0625 C6.28455723 8.80971951 8.84068414 17.888503 11.4375 27.0625 C10.1175 27.0625 8.7975 27.0625 7.4375 27.0625 C6.7775 25.0825 6.1175 23.1025 5.4375 21.0625 C1.8075 21.0625 -1.8225 21.0625 -5.5625 21.0625 C-6.2225 23.0425 -6.8825 25.0225 -7.5625 27.0625 C-8.8825 27.0625 -10.2025 27.0625 -11.5625 27.0625 C-10.33447134 21.91900678 -8.66141201 16.91253602 -7.0625 11.875 C-6.58103516 10.34069336 -6.58103516 10.34069336 -6.08984375 8.77539062 C-5.78175781 7.80408203 -5.47367187 6.83277344 -5.15625 5.83203125 C-4.87458984 4.94104736 -4.59292969 4.05006348 -4.30273438 3.13208008 C-3.2104791 0.07830437 -3.2104791 0.07830437 0 0 Z " fill="#F1F2EB" transform="translate(113.5625,82.9375)"/>
<path d="M0 0 C1.2065625 0.0309375 1.2065625 0.0309375 2.4375 0.0625 C6.28455723 8.80971951 8.84068414 17.888503 11.4375 27.0625 C10.1175 27.0625 8.7975 27.0625 7.4375 27.0625 C6.7775 25.0825 6.1175 23.1025 5.4375 21.0625 C1.8075 21.0625 -1.8225 21.0625 -5.5625 21.0625 C-6.2225 23.0425 -6.8825 25.0225 -7.5625 27.0625 C-8.8825 27.0625 -10.2025 27.0625 -11.5625 27.0625 C-10.33447134 21.91900678 -8.66141201 16.91253602 -7.0625 11.875 C-6.58103516 10.34069336 -6.58103516 10.34069336 -6.08984375 8.77539062 C-5.78175781 7.80408203 -5.47367188 6.83277344 -5.15625 5.83203125 C-4.87458984 4.94104736 -4.59292969 4.05006348 -4.30273438 3.13208008 C-3.2104791 0.07830437 -3.2104791 0.07830437 0 0 Z " fill="#F1F2EB" transform="translate(60.5625,82.9375)"/>
<path d="M0 0 C1.32 0 2.64 0 4 0 C4 3.63 4 7.26 4 11 C8.29 11 12.58 11 17 11 C17 7.37 17 3.74 17 0 C18.32 0 19.64 0 21 0 C21 8.91 21 17.82 21 27 C19.68 27 18.36 27 17 27 C17 22.71 17 18.42 17 14 C12.71 14 8.42 14 4 14 C4 18.29 4 22.58 4 27 C2.68 27 1.36 27 0 27 C0 18.09 0 9.18 0 0 Z " fill="#E4E5D6" transform="translate(81,34)"/>
<path d="M0 0 C2.206875 -0.061875 4.41375 -0.12375 6.6875 -0.1875 C8.54955078 -0.23970703 8.54955078 -0.23970703 10.44921875 -0.29296875 C14.23750993 0.01959653 16.01283246 0.71092052 19 3 C22.32024488 7.80863052 22.74051042 12.3396601 22 18 C20.75809707 21.52961886 19.80996748 23.3793184 16.84375 25.65234375 C13.26359432 27.34898346 10.63042532 27.29804931 6.6875 27.1875 C3.3771875 27.0946875 3.3771875 27.0946875 0 27 C0 18.09 0 9.18 0 0 Z M3 3 C3 9.93 3 16.86 3 24 C11.40371521 24.67082039 11.40371521 24.67082039 16 22 C18.00696265 19.04371215 18.29635805 16.5297064 18.3125 13 C18.32925781 12.154375 18.34601563 11.30875 18.36328125 10.4375 C17.92324435 7.48499434 17.04690543 6.14757291 15 4 C11.10402133 2.52565835 11.10402133 2.52565835 3 3 Z " fill="#F3FEFB" transform="translate(77,83)"/>
<path d="M0 0 C0.99 0.66 1.98 1.32 3 2 C3 2.99 3 3.98 3 5 C2.319375 4.835 1.63875 4.67 0.9375 4.5 C-2.4164822 3.92910941 -5.60389805 3.93340977 -9 4 C-9 5.65 -9 7.3 -9 9 C-8.31292969 9.25394531 -7.62585937 9.50789063 -6.91796875 9.76953125 C-6.01691406 10.11371094 -5.11585937 10.45789062 -4.1875 10.8125 C-2.84751953 11.31716797 -2.84751953 11.31716797 -1.48046875 11.83203125 C0.96968093 12.98572378 2.3668422 13.857806 4 16 C4.48258091 19.79170715 4.51879045 22.08032602 2.625 25.4375 C-1.44891852 27.8624515 -5.38810195 27.90151803 -10 27 C-12.27979455 25.5391117 -13.34659752 24.20453665 -15 22 C-14.67 21.34 -14.34 20.68 -14 20 C-10.125 21.875 -10.125 21.875 -9 23 C-4.34911285 23.30523962 -4.34911285 23.30523962 0 22 C0 20.35 0 18.7 0 17 C-0.67546875 16.82984375 -1.3509375 16.6596875 -2.046875 16.484375 C-11.54630552 13.90360486 -11.54630552 13.90360486 -14 10 C-14.58890625 6.46656253 -14.42208081 4.72904866 -12.625 1.625 C-8.64499595 -0.83881203 -4.57011742 -0.65614374 0 0 Z " fill="#ECEBE4" transform="translate(71,34)"/>
<path d="M0 0 C1.32 0 2.64 0 4 0 C4.7933855 2.04099935 5.5846303 4.0828309 6.375 6.125 C6.81585938 7.26195313 7.25671875 8.39890625 7.7109375 9.5703125 C8.88454703 12.69282513 9.96842774 15.82815631 11 19 C13.26546852 15.60179721 14.38901628 12.16057722 15.625 8.3125 C15.85445312 7.61060547 16.08390625 6.90871094 16.3203125 6.18554688 C16.88429209 4.45835938 17.44269339 2.72935218 18 1 C19.65 0.67 21.3 0.34 23 0 C20 9 17 18 14 27 C12.35 27 10.7 27 9 27 C6.03 18.09 3.06 9.18 0 0 Z " fill="#E8E7DB" transform="translate(127,83)"/>
<path d="M0 0 C0.99 0 1.98 0 3 0 C3.03758423 0.83978394 3.03758423 0.83978394 3.07592773 1.6965332 C3.19203745 4.23541305 3.3146958 6.77393553 3.4375 9.3125 C3.47681641 10.19357422 3.51613281 11.07464844 3.55664062 11.98242188 C3.59853516 12.82998047 3.64042969 13.67753906 3.68359375 14.55078125 C3.73858032 15.72120972 3.73858032 15.72120972 3.79467773 16.9152832 C3.94125263 19.19329101 3.94125263 19.19329101 5 22 C7.73905345 23.36952673 9.97087332 23.12621361 13 23 C13.66 22.67 14.32 22.34 15 22 C15.90833969 19.27498092 16.18359985 17.37766029 16.31640625 14.55078125 C16.35830078 13.70322266 16.40019531 12.85566406 16.44335938 11.98242188 C16.48267578 11.10134766 16.52199219 10.22027344 16.5625 9.3125 C16.60568359 8.41982422 16.64886719 7.52714844 16.69335938 6.60742188 C16.79935353 4.40509892 16.90142051 2.20266527 17 0 C17.99 0 18.98 0 20 0 C20.08745946 3.3956697 20.14054444 6.79104773 20.1875 10.1875 C20.21263672 11.14720703 20.23777344 12.10691406 20.26367188 13.09570312 C20.3568739 22.07416443 20.3568739 22.07416443 17 26 C13.31123973 27.84438013 9.02669687 27.48788734 5 27 C2.42362529 25.11484777 1.40332572 23.80665143 0 21 C-0.08400529 19.40552536 -0.10727467 17.80759455 -0.09765625 16.2109375 C-0.09443359 15.26992188 -0.09121094 14.32890625 -0.08789062 13.359375 C-0.07951172 12.37453125 -0.07113281 11.3896875 -0.0625 10.375 C-0.05798828 9.38242187 -0.05347656 8.38984375 -0.04882812 7.3671875 C-0.03702145 4.9113984 -0.020554 2.45572896 0 0 Z " fill="#E7EAE7" transform="translate(109,34)"/>
<path d="M0 0 C2.33203125 0.21875 2.33203125 0.21875 5 1 C6.51171875 3.03125 6.51171875 3.03125 7.6875 5.5 C9.15361193 8.91419023 9.15361193 8.91419023 12 11 C12.2475 10.29875 12.495 9.5975 12.75 8.875 C14.17950641 5.58713526 15.81698049 2.84454057 18 0 C18.99 0 19.98 0 21 0 C20.13203466 2.44608415 19.19761104 4.69338416 17.7890625 6.87890625 C13.62915677 13.40731323 13.13008003 19.34892908 13 27 C11.68 27 10.36 27 9 27 C9.020625 26.29617187 9.04125 25.59234375 9.0625 24.8671875 C8.88321534 16.28393431 6.15829653 10.81526324 1.71484375 3.73828125 C0 1 0 1 0 0 Z " fill="#E7EADB" transform="translate(26,83)"/>
<path d="M0 0 C2.1875 -0.3125 2.1875 -0.3125 5 0 C8.59868411 3.02616618 10.72787375 5.25257155 11.203125 10.05078125 C11.3082244 15.12182749 10.97729313 18.68805822 8 23 C5.04473066 25.216452 3.71253164 26 0 26 C0.3125 24.0625 0.3125 24.0625 1 22 C1.99 21.67 2.98 21.34 4 21 C6.01127242 18.00320409 6.27147849 15.49755975 6.25 11.9375 C6.25515625 11.08027344 6.2603125 10.22304687 6.265625 9.33984375 C6.14992488 6.72947202 6.14992488 6.72947202 4 4 C1.94996045 2.80767387 1.94996045 2.80767387 0 2 C0 1.34 0 0.68 0 0 Z " fill="#F5E7C7" transform="translate(88,84)"/>
<path d="M0 0 C1.32 0 2.64 0 4 0 C4 8.91 4 17.82 4 27 C2.68 27 1.36 27 0 27 C0 18.09 0 9.18 0 0 Z " fill="#E2E4DC" transform="translate(47,34)"/>
<path d="M0 0 C2.0625 0.4375 2.0625 0.4375 4 1 C2.88195521 4.27325262 1.75437425 7.54314082 0.625 10.8125 C0.14933594 12.2056543 0.14933594 12.2056543 -0.3359375 13.62695312 C-0.6453125 14.51962891 -0.9546875 15.41230469 -1.2734375 16.33203125 C-1.55622559 17.15421143 -1.83901367 17.9763916 -2.13037109 18.82348633 C-3 21 -3 21 -5 24 C-6.49483852 21.55660946 -7.14070728 19.76893555 -6.61865234 16.91601562 C-5.88303295 14.49436682 -5.06042715 12.12556848 -4.1875 9.75 C-3.90068359 8.92242187 -3.61386719 8.09484375 -3.31835938 7.2421875 C-1.19026549 1.19026549 -1.19026549 1.19026549 0 0 Z " fill="#D0E4EA" transform="translate(146,83)"/>
<path d="M0 0 C0.99 0 1.98 0 3 0 C3 7.26 3 14.52 3 22 C2.34 22.33 1.68 22.66 1 23 C-0.2263757 20.54724859 -0.11415314 18.9494219 -0.09765625 16.2109375 C-0.09443359 15.26992188 -0.09121094 14.32890625 -0.08789062 13.359375 C-0.07951172 12.37453125 -0.07113281 11.3896875 -0.0625 10.375 C-0.05798828 9.38242187 -0.05347656 8.38984375 -0.04882812 7.3671875 C-0.03702145 4.9113984 -0.020554 2.45572896 0 0 Z " fill="#E7F8FA" transform="translate(109,34)"/>
<path d="M0 0 C2.00993705 3.01490557 2.72623341 5.2149927 3.625 8.6875 C3.88539062 9.68136719 4.14578125 10.67523438 4.4140625 11.69921875 C4.60742188 12.45847656 4.80078125 13.21773437 5 14 C2.03 14 -0.94 14 -4 14 C-2.68 9.38 -1.36 4.76 0 0 Z " fill="#0D0C18" transform="translate(113,86)"/>
<path d="M0 0 C2.00993705 3.01490557 2.72623341 5.2149927 3.625 8.6875 C3.88539062 9.68136719 4.14578125 10.67523438 4.4140625 11.69921875 C4.60742188 12.45847656 4.80078125 13.21773437 5 14 C2.03 14 -0.94 14 -4 14 C-2.68 9.38 -1.36 4.76 0 0 Z " fill="#0D0C18" transform="translate(60,86)"/>
<path d="M0 0 C0.99 0 1.98 0 3 0 C3 6.93 3 13.86 3 21 C2.01 21 1.02 21 0 21 C0 14.07 0 7.14 0 0 Z " fill="#FAF8E7" transform="translate(126,34)"/>
<path d="M0 0 C0.99 0.66 1.98 1.32 3 2 C3 2.99 3 3.98 3 5 C2.319375 4.835 1.63875 4.67 0.9375 4.5 C-3.58177712 3.73076134 -7.62962405 3.54320802 -12 5 C-12.33 6.65 -12.66 8.3 -13 10 C-13.33 10 -13.66 10 -14 10 C-14.30719041 6.62090549 -14.34529892 4.59642541 -12.625 1.625 C-8.64499595 -0.83881203 -4.57011742 -0.65614374 0 0 Z " fill="#ECE9DF" transform="translate(71,34)"/>
<path d="M0 0 C3.54386925 -0.50626704 4.87141305 -0.08207678 7.9375 1.875 C10.3411887 5.51695258 10.13867806 6.2107005 9.3125 10.3125 C8.90226863 11.88237984 8.47315669 13.4479255 8 15 C7.67 15 7.34 15 7 15 C6.91363281 14.31292969 6.82726562 13.62585938 6.73828125 12.91796875 C6.04676952 7.15040389 6.04676952 7.15040389 2.375 3 C1.59125 2.67 0.8075 2.34 0 2 C0 1.34 0 0.68 0 0 Z " fill="#EAEFEA" transform="translate(88,84)"/>
<path d="M0 0 C1.2065625 0.0309375 1.2065625 0.0309375 2.4375 0.0625 C3.0625 3.4375 3.0625 3.4375 3.4375 7.0625 C2.7775 7.7225 2.1175 8.3825 1.4375 9.0625 C0.7775 7.7425 0.1175 6.4225 -0.5625 5.0625 C-1.5525 6.5475 -1.5525 6.5475 -2.5625 8.0625 C-3.2225 8.0625 -3.8825 8.0625 -4.5625 8.0625 C-3.54737544 0.08652135 -3.54737544 0.08652135 0 0 Z " fill="#DEEFF2" transform="translate(113.5625,82.9375)"/>
<path d="M0 0 C1.2065625 0.0309375 1.2065625 0.0309375 2.4375 0.0625 C3.0625 3.4375 3.0625 3.4375 3.4375 7.0625 C2.7775 7.7225 2.1175 8.3825 1.4375 9.0625 C0.7775 7.7425 0.1175 6.4225 -0.5625 5.0625 C-1.5525 6.5475 -1.5525 6.5475 -2.5625 8.0625 C-3.2225 8.0625 -3.8825 8.0625 -4.5625 8.0625 C-3.54737544 0.08652135 -3.54737544 0.08652135 0 0 Z " fill="#DEEFF2" transform="translate(60.5625,82.9375)"/>
<path d="M0 0 C4.29 0 8.58 0 13 0 C12.01 0.33 11.02 0.66 10 1 C10 1.66 10 2.32 10 3 C6.7 3 3.4 3 0 3 C0 2.01 0 1.02 0 0 Z " fill="#F9F6F6" transform="translate(78,83)"/>
<path d="M0 0 C2 2 2 2 2 6 C-0.87354245 8.17457267 -2.36436591 9 -6 9 C-5.6875 7.0625 -5.6875 7.0625 -5 5 C-4.01 4.67 -3.02 4.34 -2 4 C-0.79117904 1.99983534 -0.79117904 1.99983534 0 0 Z " fill="#DFE7E6" transform="translate(94,101)"/>
<path d="M0 0 C-1.2491742 3.45925163 -2.67527795 6.14693203 -5 9 C-5.6875 6.75 -5.6875 6.75 -6 4 C-3.83783784 0 -3.83783784 0 0 0 Z " fill="#EBEFE6" transform="translate(47,83)"/>
<path d="M0 0 C0.66 0.33 1.32 0.66 2 1 C2 2.65 2 4.3 2 6 C0.35 6 -1.3 6 -3 6 C-3 4.68 -3 3.36 -3 2 C-2.01 2 -1.02 2 0 2 C0 1.34 0 0.68 0 0 Z " fill="#F7FBF7" transform="translate(139,104)"/>
<path d="M0 0 C1.98 0.495 1.98 0.495 4 1 C3.34 3.64 2.68 6.28 2 9 C1.67 7.68 1.34 6.36 1 5 C0.34 5 -0.32 5 -1 5 C-0.67 3.35 -0.34 1.7 0 0 Z " fill="#D0CDB8" transform="translate(108,90)"/>
<path d="M0 0 C1.98 0.495 1.98 0.495 4 1 C3.34 3.64 2.68 6.28 2 9 C1.67 7.68 1.34 6.36 1 5 C0.34 5 -0.32 5 -1 5 C-0.67 3.35 -0.34 1.7 0 0 Z " fill="#D0CDB8" transform="translate(55,90)"/>
<path d="M0 0 C2.45823172 3.68734758 3.01242616 6.69699971 4 11 C2.66666667 11 1.33333333 11 0 11 C0 7.37 0 3.74 0 0 Z " fill="#E6D3A9" transform="translate(116,84)"/>
<path d="M0 0 C2.45823172 3.68734758 3.01242616 6.69699971 4 11 C2.66666667 11 1.33333333 11 0 11 C0 7.37 0 3.74 0 0 Z " fill="#E6D3A9" transform="translate(63,84)"/>
<path d="M0 0 C-0.3125 1.9375 -0.3125 1.9375 -1 4 C-1.99 4.33 -2.98 4.66 -4 5 C-4.33 6.65 -4.66 8.3 -5 10 C-5.33 10 -5.66 10 -6 10 C-6.33663062 6.29706315 -6.47736015 4.60465619 -4.125 1.625 C-2 0 -2 0 0 0 Z " fill="#CEE7F4" transform="translate(63,34)"/>
<path d="M0 0 C0.66 0.33 1.32 0.66 2 1 C2 2.98 2 4.96 2 7 C0.68 7 -0.64 7 -2 7 C-1.42415568 4.61435923 -0.77772405 2.33317216 0 0 Z " fill="#DAEAEE" transform="translate(104,103)"/>
<path d="M0 0 C0.66 0.33 1.32 0.66 2 1 C2 2.98 2 4.96 2 7 C0.68 7 -0.64 7 -2 7 C-1.42415568 4.61435923 -0.77772405 2.33317216 0 0 Z " fill="#DAEAEE" transform="translate(51,103)"/>
<path d="M0 0 C1.98 0.495 1.98 0.495 4 1 C3.34 3.31 2.68 5.62 2 8 C0.23537317 4.91190305 0 3.76687864 0 0 Z " fill="#DCDAC9" transform="translate(146,83)"/>
<path d="M0 0 C2.64 0 5.28 0 8 0 C7.01 0.33 6.02 0.66 5 1 C5 1.66 5 2.32 5 3 C3.35 3 1.7 3 0 3 C0 2.01 0 1.02 0 0 Z " fill="#F5F1EF" transform="translate(63,34)"/>
</svg>
